<?xml version="1.0" standalone="no"?>
<!DOCTYPE svg PUBLIC "-//W3C//DTD SVG 20010904//EN"
 "http://www.w3.org/TR/2001/REC-SVG-20010904/DTD/svg10.dtd">
<svg version="1.0" xmlns="http://www.w3.org/2000/svg"
 width="2480.000000pt" height="2322.000000pt" viewBox="0 0 2480.000000 2322.000000"
 preserveAspectRatio="xMidYMid meet">

<g transform="translate(0.000000,2322.000000) scale(0.100000,-0.100000)"
fill="#000000" stroke="none">
<path d="M12055 21963 c-1731 -70 -3498 -641 -5023 -1625 -364 -235 -983 -698
-1358 -1015 -342 -290 -801 -740 -1088 -1068 -1499 -1710 -2390 -3845 -2641
-6330 -53 -527 -75 -1015 -75 -1710 0 -253 -3 -470 -6 -481 -5 -21 -11 -22
-132 -21 -143 0 -223 -15 -328 -63 -274 -124 -490 -438 -606 -880 l-30 -115
-8 -455 c-17 -863 -23 -2612 -11 -3058 16 -622 26 -701 105 -909 141 -369 332
-607 591 -733 135 -67 238 -89 467 -104 103 -6 192 -16 198 -22 6 -6 19 -47
30 -92 50 -209 160 -494 256 -663 341 -604 859 -941 1604 -1046 253 -35 834
-16 1000 33 247 73 460 274 608 574 l47 95 7 510 c9 683 28 5337 28 6789 l0
1158 -35 107 c-68 202 -209 460 -310 564 -61 64 -102 80 -280 111 -251 43
-390 57 -615 63 -316 8 -563 -25 -748 -100 l-63 -26 6 57 c3 31 12 138 21 237
184 2142 1078 4126 2524 5599 228 233 398 391 604 563 193 162 811 625 1041
779 1243 835 2539 1291 3929 1383 203 14 744 14 951 1 1408 -91 2830 -551
4150 -1343 314 -188 739 -484 1010 -702 971 -783 1774 -1879 2385 -3255 408
-920 737 -2035 845 -2867 16 -129 25 -326 14 -338 -4 -3 -81 2 -170 12 -231
25 -724 25 -894 0 -295 -44 -509 -118 -670 -232 -95 -67 -187 -172 -233 -264
-77 -153 -70 70 -82 -2826 -12 -3042 -12 -4696 0 -5420 8 -480 10 -526 29
-597 87 -320 278 -531 541 -597 152 -38 373 -56 705 -56 268 0 330 3 460 23
599 88 1038 320 1354 712 179 222 295 454 411 820 74 233 61 216 168 223 489
35 922 357 1192 889 l61 118 14 518 c52 1875 58 3275 15 3536 -25 154 -132
462 -230 661 -144 294 -298 467 -492 554 -81 36 -137 50 -254 61 -53 5 -102
14 -110 21 -13 11 -14 44 -8 238 10 371 -17 1085 -62 1561 -196 2129 -864
4074 -1969 5735 -417 627 -859 1168 -1375 1685 -419 420 -765 712 -1220 1031
-1906 1335 -3921 2013 -5935 1997 -132 -1 -271 -3 -310 -5z"/>
<path d="M11850 11410 c-83 -18 -152 -60 -236 -145 -69 -69 -90 -98 -133 -186
l-51 -104 -520 -3650 c-286 -2007 -523 -3660 -525 -3672 -5 -19 -12 -23 -45
-23 -22 0 -40 1 -40 3 0 1 -140 700 -310 1552 -419 2092 -553 2782 -589 3021
-31 203 -87 326 -190 414 -152 132 -417 159 -608 63 -65 -32 -151 -116 -185
-180 -14 -26 -252 -743 -528 -1593 -276 -850 -506 -1549 -511 -1555 -6 -6
-217 -12 -572 -15 l-562 -5 -7 -339 c-4 -187 -7 -341 -5 -342 7 -7 1581 -24
1587 -17 4 4 112 343 240 753 408 1311 727 2322 743 2357 13 28 33 30 47 4 5
-11 64 -307 130 -658 417 -2206 708 -3687 797 -4053 29 -119 45 -155 116 -258
130 -189 330 -300 523 -290 71 4 94 10 159 42 88 44 189 134 263 235 102 137
97 124 147 482 24 178 168 1229 320 2334 510 3720 612 4445 627 4462 16 20 41
15 77 -15 l33 -27 144 -1135 c233 -1835 626 -4935 739 -5828 113 -900 117
-921 194 -1039 96 -148 291 -253 471 -253 178 0 385 126 513 311 l37 54 405
2024 c243 1217 410 2028 417 2033 22 13 46 9 52 -9 3 -10 21 -110 41 -223 145
-824 397 -2191 461 -2503 52 -253 102 -357 223 -470 66 -61 206 -135 293 -156
111 -26 233 -7 338 52 74 42 185 155 243 247 l46 76 215 933 c119 514 218 936
221 940 4 3 322 8 707 10 l700 3 -6 227 c-3 124 -9 276 -12 337 l-6 111 -911
6 c-501 4 -912 6 -913 4 -2 -2 -116 -430 -254 -953 -138 -522 -253 -956 -256
-966 -4 -15 -51 -34 -61 -25 -2 3 -125 661 -273 1463 -148 803 -277 1488 -286
1524 -28 103 -87 212 -153 277 -104 104 -239 155 -416 156 -171 2 -286 -53
-393 -188 -90 -114 -63 1 -492 -2125 l-396 -1965 -47 -3 c-26 -2 -47 -1 -47 2
0 3 -117 904 -260 2003 -263 2026 -589 4538 -700 5402 -34 261 -72 518 -86
570 -49 196 -156 353 -284 414 -114 55 -304 87 -400 67z"/>
</g>
</svg>
