<?xml version="1.0" standalone="no"?>
<!DOCTYPE svg PUBLIC "-//W3C//DTD SVG 20010904//EN"
 "http://www.w3.org/TR/2001/REC-SVG-20010904/DTD/svg10.dtd">
<svg version="1.0" xmlns="http://www.w3.org/2000/svg"
 width="2480.000000pt" height="2322.000000pt" viewBox="0 0 2480.000000 2322.000000"
 preserveAspectRatio="xMidYMid meet">

<g transform="translate(0.000000,2322.000000) scale(0.100000,-0.100000)"
fill="#000000" stroke="none">
<path d="M2005 21984 c-119 -19 -404 -114 -554 -185 -355 -167 -599 -440 -650
-724 -20 -112 -40 -15223 -22 -16170 l7 -350 32 -93 c124 -361 351 -629 673
-797 127 -65 214 -100 323 -125 69 -16 149 -21 536 -30 1930 -44 3687 -232
5485 -586 1218 -240 2495 -599 2960 -831 151 -76 142 -63 147 -205 4 -104 10
-135 34 -198 106 -280 447 -565 885 -739 166 -66 303 -102 415 -108 109 -7
253 22 479 94 390 126 644 294 804 534 68 101 108 198 156 381 20 72 43 143
52 158 12 21 49 44 134 84 1034 489 2655 879 4744 1140 1043 131 1976 211
3140 271 61 3 272 12 470 20 378 15 473 26 660 74 431 113 749 359 929 719 45
89 93 230 111 326 12 60 16 1349 25 8062 10 7340 10 7998 -5 8097 -57 379
-232 663 -534 865 -139 93 -252 146 -425 198 -210 63 -288 67 -960 39 -2918
-118 -5275 -407 -6934 -849 -924 -247 -1652 -548 -2119 -878 -357 -251 -583
-538 -626 -793 l-13 -77 -18 58 c-29 91 -130 281 -203 379 -92 124 -294 322
-442 433 -619 463 -1619 850 -2966 1146 -1537 338 -3423 557 -5545 646 -269
11 -1137 21 -1185 14z m19084 -2871 c16 -101 29 -340 43 -808 17 -562 17
-6244 0 -8060 -20 -2109 -31 -3186 -38 -3716 l-7 -496 -311 -6 c-467 -10
-1102 -48 -1646 -98 -118 -11 -285 -24 -370 -29 -176 -11 -580 -58 -1065 -125
-181 -25 -368 -50 -415 -55 -83 -10 -576 -93 -870 -147 -80 -14 -253 -50 -385
-80 -132 -30 -269 -58 -305 -64 -36 -5 -159 -34 -274 -64 -115 -30 -218 -55
-229 -55 -21 0 -444 -123 -551 -160 -33 -11 -67 -20 -77 -20 -11 0 -92 -25
-181 -56 -90 -31 -181 -60 -203 -65 -22 -4 -105 -33 -184 -64 -79 -30 -149
-55 -157 -55 -17 0 -21 17 -34 140 -40 403 -54 1755 -46 4470 3 1240 10 2761
16 3380 14 1649 29 3173 40 4023 9 722 10 750 30 794 48 108 133 190 248 236
34 14 96 46 138 71 41 25 77 46 80 46 3 0 73 34 157 75 84 42 175 82 202 89
28 8 128 41 223 75 95 34 182 61 192 61 11 0 79 17 152 39 142 41 379 98 518
125 47 9 204 42 350 72 146 30 299 59 340 64 41 5 250 38 464 74 213 36 405
66 425 66 20 0 176 20 346 44 604 87 1733 211 2470 272 110 9 331 29 490 44
160 15 318 28 352 29 l61 1 11 -67z m-16689 37 c129 -6 330 -17 445 -25 116
-8 280 -19 365 -25 281 -19 412 -31 685 -65 644 -80 929 -122 1295 -191 129
-25 267 -49 305 -54 70 -9 342 -65 548 -114 60 -14 121 -26 135 -26 15 0 158
-33 317 -74 160 -40 308 -76 331 -79 22 -4 150 -38 285 -77 134 -38 252 -70
261 -70 9 0 117 -31 239 -70 123 -38 231 -70 241 -70 9 0 120 -36 246 -80 126
-44 235 -80 243 -80 25 0 162 -55 244 -98 88 -46 242 -173 317 -261 l48 -56 0
-3265 c0 -5059 -20 -9184 -46 -9438 -8 -77 14 -78 -224 11 -202 74 -448 154
-810 263 -266 79 -288 85 -460 128 -283 70 -394 97 -500 121 -63 15 -231 53
-373 86 -142 32 -270 59 -285 59 -16 0 -68 9 -117 20 -158 34 -571 110 -600
110 -15 0 -136 18 -269 40 -370 61 -794 120 -934 130 -70 5 -158 14 -197 19
-284 41 -1023 102 -1460 121 -132 6 -325 15 -430 20 -104 5 -266 10 -360 10
-93 0 -194 3 -224 7 l-53 6 6 6281 c3 3455 9 6397 12 6539 l6 257 267 0 c146
0 372 -5 501 -10z"/>
</g>
</svg>
