<?xml version="1.0" standalone="no"?>
<!DOCTYPE svg PUBLIC "-//W3C//DTD SVG 20010904//EN"
 "http://www.w3.org/TR/2001/REC-SVG-20010904/DTD/svg10.dtd">
<svg version="1.0" xmlns="http://www.w3.org/2000/svg"
 width="2480.000000pt" height="2322.000000pt" viewBox="0 0 2480.000000 2322.000000"
 preserveAspectRatio="xMidYMid meet">

<g transform="translate(0.000000,2322.000000) scale(0.100000,-0.100000)"
fill="#000000" stroke="none">
<path d="M2105 22015 c-538 -126 -923 -474 -1141 -1031 -56 -142 -107 -330
-129 -467 -15 -99 -16 -613 -6 -7344 7 -4444 15 -7290 21 -7373 81 -1129 438
-1999 1085 -2645 499 -498 1167 -846 1855 -964 112 -19 200 -20 3425 -31 1821
-6 4489 -15 5930 -20 3292 -12 7667 -12 7800 0 119 10 396 79 609 152 691 234
1253 625 1697 1180 354 443 621 996 768 1588 84 338 80 290 91 1270 38 3539
38 6986 1 7381 -12 124 -53 303 -106 465 -177 539 -508 915 -943 1071 -198 71
-10 65 -2301 74 -1140 4 -2075 10 -2076 11 -1 2 -8 1011 -14 2243 -7 1232 -16
2355 -21 2495 -19 495 -92 826 -255 1155 -90 180 -173 299 -294 421 -200 201
-448 332 -715 379 -79 13 -871 15 -7635 14 l-7546 0 -100 -24z m15060 -1530
c59 -28 109 -79 133 -134 13 -32 14 -856 11 -7361 -3 -6870 -2 -7333 14 -7460
108 -846 303 -1420 605 -1777 34 -40 58 -74 54 -76 -10 -7 -313 -16 -732 -23
-478 -8 -5833 -8 -7655 0 -5369 25 -5531 26 -5615 42 -184 35 -482 150 -675
262 -253 146 -493 360 -662 592 -213 292 -353 650 -430 1100 -17 100 -18 306
-20 4115 -3 5233 9 10536 26 10586 15 47 49 97 84 123 l28 21 1757 5 c966 3
4292 6 7390 8 l5633 2 54 -25z m5445 -6647 c53 -27 102 -95 125 -171 13 -45
15 -499 15 -3919 l0 -3868 -23 0 c-22 0 -23 -4 -35 -136 -63 -695 -391 -1293
-922 -1680 -89 -65 -240 -152 -331 -190 -46 -19 -99 -42 -118 -50 -35 -17
-266 -77 -336 -89 -213 -34 -387 -34 -600 0 -70 12 -301 72 -336 89 -19 8 -72
31 -118 50 -200 84 -440 254 -617 438 -353 366 -579 863 -633 1397 -8 71 -11
1359 -11 4111 l0 4008 928 6 c510 4 1298 10 1752 15 454 4 913 8 1020 9 185 2
198 1 240 -20z"/>
<path d="M4570 17436 c-144 -41 -242 -97 -341 -196 -75 -75 -94 -101 -138
-191 -66 -136 -84 -213 -84 -364 0 -133 15 -214 61 -324 85 -202 262 -361 456
-411 152 -39 -33 -37 3321 -28 1414 4 3686 10 5050 14 2091 5 2490 8 2544 20
35 8 107 36 158 61 201 101 323 250 384 468 31 109 31 285 1 398 -44 161 -146
309 -276 401 -64 45 -125 72 -241 104 -68 20 -124 20 -2565 31 -3886 18 -6374
30 -7350 35 l-895 5 -85 -23z"/>
<path d="M7340 14384 c-14 -3 -57 -14 -95 -25 -70 -20 -77 -20 -1250 -8 -1474
15 -1349 15 -1418 -5 -232 -68 -418 -270 -488 -531 -18 -67 -21 -102 -19 -215
5 -235 5 -1072 1 -2125 l-5 -1020 22 -80 c62 -223 200 -396 389 -488 91 -44
159 -61 253 -60 41 0 619 6 1284 13 1029 11 1219 11 1280 -1 88 -17 214 -17
284 0 75 19 185 74 254 128 123 97 219 251 258 413 12 47 25 92 29 100 5 9 5
522 0 1140 -5 619 -9 1352 -8 1630 1 485 0 508 -20 585 -68 255 -241 452 -459
522 -75 24 -231 39 -292 27z m-270 -2329 l0 -1055 -945 0 -945 0 0 1055 0
1055 945 0 945 0 0 -1055z"/>
<path d="M9965 14375 c-89 -20 -142 -41 -204 -82 -289 -187 -417 -563 -310
-910 71 -229 235 -406 447 -481 l77 -27 2709 -3 c1490 -1 2712 1 2715 5 3 5
37 18 74 31 211 71 381 267 448 517 30 112 30 297 0 410 -68 253 -251 462
-456 521 -36 10 -65 22 -65 26 0 5 -1209 8 -2687 7 -2208 0 -2699 -3 -2748
-14z"/>
<path d="M10088 11345 c-3 -3 -16 -8 -28 -10 -13 -2 -48 -12 -78 -21 -227 -66
-415 -278 -479 -542 -24 -101 -22 -295 6 -397 59 -221 198 -395 389 -488 148
-72 -75 -67 2812 -67 2882 0 2675 -5 2820 66 193 94 332 268 391 489 27 103
30 297 6 397 -64 264 -252 477 -479 542 -30 9 -66 20 -79 24 -28 8 -5273 15
-5281 7z"/>
<path d="M4550 8305 c-143 -31 -302 -140 -395 -270 -101 -141 -147 -287 -148
-470 -2 -149 17 -234 83 -370 83 -173 230 -307 398 -363 69 -23 90 -25 200
-23 160 4 10414 4 10575 0 109 -2 130 0 199 23 224 75 406 287 464 543 26 112
23 283 -5 390 -69 259 -244 452 -481 532 -53 17 -238 18 -5440 20 -4568 1
-5395 -1 -5450 -12z"/>
</g>
</svg>
