<?xml version="1.0" standalone="no"?>
<!DOCTYPE svg PUBLIC "-//W3C//DTD SVG 20010904//EN"
 "http://www.w3.org/TR/2001/REC-SVG-20010904/DTD/svg10.dtd">
<svg version="1.0" xmlns="http://www.w3.org/2000/svg"
 width="2480.000000pt" height="2322.000000pt" viewBox="0 0 2480.000000 2322.000000"
 preserveAspectRatio="xMidYMid meet">

<g transform="translate(0.000000,2322.000000) scale(0.100000,-0.100000)"
fill="#000000" stroke="none">
<path d="M12181 21930 c-496 -48 -974 -234 -1379 -536 -153 -115 -411 -372
-525 -525 -284 -381 -448 -779 -524 -1269 -13 -86 -17 -176 -17 -360 0 -184 4
-274 17 -360 76 -490 240 -888 524 -1269 114 -152 372 -410 524 -524 310 -231
605 -371 983 -466 l149 -38 -129 -7 c-1015 -54 -2024 -277 -2981 -657 -43 -17
-139 -62 -215 -100 -666 -338 -1081 -908 -1207 -1657 -64 -376 -53 -670 49
-1287 323 -1950 1231 -4309 2518 -6545 179 -312 397 -668 430 -702 25 -27 21
-26 -139 28 -1620 545 -3778 684 -5673 364 -1695 -286 -2996 -904 -3515 -1669
-250 -368 -306 -792 -155 -1174 80 -204 199 -381 384 -571 271 -279 565 -483
1021 -710 2570 -1279 7200 -1133 9314 295 349 236 592 480 770 773 l17 28 35
-58 c130 -216 384 -472 675 -681 453 -326 1162 -638 1908 -842 2722 -742 6272
-397 8015 780 641 433 966 936 941 1454 -17 362 -185 687 -523 1016 -269 262
-562 458 -1008 675 -1829 891 -4807 1112 -7190 534 -247 -60 -495 -131 -727
-209 -98 -33 -178 -58 -178 -55 0 2 20 35 44 72 168 263 572 955 801 1372
1069 1953 1789 3861 2044 5420 69 423 92 688 94 1084 2 327 -9 436 -68 671
-169 671 -644 1233 -1341 1585 -153 78 -512 222 -769 310 -666 227 -1339 369
-2059 434 l-239 21 129 28 c516 113 949 351 1330 731 430 431 675 921 771
1546 13 86 17 176 17 360 0 184 -4 274 -17 360 -76 490 -240 888 -524 1269
-114 152 -372 410 -524 524 -379 282 -781 449 -1259 522 -125 19 -486 28 -619
15z m635 -6411 c769 -50 1483 -213 2189 -499 740 -299 1198 -811 1327 -1487
21 -107 23 -147 23 -418 0 -173 -6 -353 -13 -425 -160 -1542 -908 -3479 -2135
-5525 -217 -363 -244 -401 -354 -505 -295 -279 -674 -492 -1031 -579 -179 -44
-286 -54 -494 -48 -272 8 -465 56 -713 177 -229 111 -446 271 -666 490 -125
125 -143 148 -236 300 -499 815 -1008 1820 -1374 2714 -464 1131 -764 2188
-895 3151 -24 171 -26 212 -21 415 5 234 15 317 62 502 117 455 392 828 791
1069 177 107 448 217 858 348 505 162 1151 281 1726 320 185 12 773 13 956 0z
m-5681 -10048 c639 -58 1091 -134 1555 -261 1111 -305 1852 -820 1995 -1385
33 -130 35 -302 4 -426 -48 -193 -155 -366 -338 -549 -197 -196 -404 -337
-726 -494 -655 -321 -1434 -509 -2480 -598 -205 -18 -1176 -18 -1380 0 -702
60 -1245 158 -1765 317 -567 174 -1059 424 -1375 698 -245 212 -386 428 -440
671 -26 119 -17 321 20 436 143 443 613 835 1355 1130 643 255 1400 410 2295
470 172 11 1128 4 1280 -9z m11680 0 c639 -58 1091 -134 1555 -261 1111 -305
1852 -820 1995 -1385 33 -130 35 -302 4 -426 -48 -193 -155 -366 -338 -549
-197 -196 -404 -337 -726 -494 -655 -321 -1434 -509 -2480 -598 -205 -18
-1176 -18 -1380 0 -702 60 -1245 158 -1765 317 -567 174 -1059 424 -1375 698
-245 212 -386 428 -440 671 -26 119 -17 321 20 436 143 443 613 835 1355 1130
643 255 1400 410 2295 470 172 11 1128 4 1280 -9z"/>
</g>
</svg>
