<?xml version="1.0" standalone="no"?>
<!DOCTYPE svg PUBLIC "-//W3C//DTD SVG 20010904//EN"
 "http://www.w3.org/TR/2001/REC-SVG-20010904/DTD/svg10.dtd">
<svg version="1.0" xmlns="http://www.w3.org/2000/svg"
 width="512.000000pt" height="512.000000pt" viewBox="0 0 512.000000 512.000000"
 preserveAspectRatio="xMidYMid meet">

<g transform="translate(0.000000,512.000000) scale(0.100000,-0.100000)"
fill="#000000" stroke="none">
<path d="M383 5106 c-181 -44 -334 -202 -372 -384 -16 -75 -16 -3329 0 -3404
39 -187 200 -348 387 -387 30 -6 155 -11 287 -11 l235 0 0 -235 c0 -132 5
-257 11 -287 39 -187 200 -348 387 -387 75 -16 3329 -16 3404 0 187 39 348
200 387 387 16 75 16 3329 0 3404 -39 187 -200 348 -387 387 -30 6 -155 11
-287 11 l-235 0 0 235 c0 132 -5 257 -11 287 -39 187 -200 348 -387 387 -81
17 -3349 14 -3419 -3z m3449 -219 c64 -32 111 -80 142 -146 l21 -46 0 -1675 0
-1675 -21 -46 c-31 -66 -78 -114 -142 -146 l-57 -28 -1675 0 -1675 0 -57 28
c-64 32 -111 80 -142 146 l-21 46 -3 1645 c-2 1169 0 1660 8 1696 22 101 93
181 193 216 49 17 139 17 1712 15 l1660 -2 57 -28z m909 -913 c66 -31 114 -78
146 -142 l28 -57 0 -1675 0 -1675 -21 -46 c-31 -66 -78 -114 -142 -146 l-57
-28 -1675 0 -1675 0 -57 28 c-64 32 -111 80 -142 146 -19 42 -21 67 -24 294
l-3 247 1315 0 c921 0 1331 3 1368 11 187 39 348 200 387 387 8 37 11 447 11
1368 l0 1315 248 -3 c226 -3 251 -5 293 -24z"/>
<path d="M451 4756 c-47 -26 -63 -84 -37 -135 24 -45 52 -51 241 -51 189 0
217 6 241 51 27 52 8 115 -41 137 -38 17 -372 16 -404 -2z"/>
<path d="M1048 4754 c-34 -18 -48 -43 -48 -84 0 -42 15 -67 50 -85 53 -27 111
-12 136 36 47 93 -46 183 -138 133z"/>
<path d="M1455 3911 c-103 -50 -163 -122 -190 -228 -14 -54 -15 -143 -13 -690
l3 -628 31 -65 c37 -76 89 -132 159 -168 68 -35 194 -43 263 -17 26 10 234
126 462 258 726 420 694 398 746 512 23 49 28 74 28 136 0 66 -5 86 -32 141
-17 34 -48 80 -69 100 -39 38 -1079 645 -1142 666 -19 7 -68 12 -110 12 -63 0
-86 -5 -136 -29z m513 -360 c804 -464 734 -420 761 -474 21 -43 22 -53 12 -88
-6 -21 -22 -50 -34 -63 -12 -14 -257 -160 -543 -325 -497 -287 -524 -301 -572
-301 -43 0 -57 5 -86 31 -20 17 -40 47 -46 67 -14 50 -14 1194 0 1244 6 20 26
50 46 67 29 26 43 31 85 31 47 0 71 -12 377 -189z"/>
<path d="M1371 536 c-87 -48 -50 -186 50 -186 28 0 77 27 89 49 5 11 10 34 10
51 0 42 -15 67 -50 85 -35 18 -67 19 -99 1z"/>
<path d="M1661 536 c-67 -37 -65 -143 4 -174 20 -9 379 -12 1501 -12 1257 0
1479 2 1503 14 66 35 66 137 0 172 -40 20 -2971 21 -3008 0z"/>
</g>
</svg>
