<?xml version="1.0" standalone="no"?>
<!DOCTYPE svg PUBLIC "-//W3C//DTD SVG 20010904//EN"
 "http://www.w3.org/TR/2001/REC-SVG-20010904/DTD/svg10.dtd">
<svg version="1.0" xmlns="http://www.w3.org/2000/svg"
 width="512.000000pt" height="512.000000pt" viewBox="0 0 512.000000 512.000000"
 preserveAspectRatio="xMidYMid meet">

<g transform="translate(0.000000,512.000000) scale(0.100000,-0.100000)"
fill="#000000" stroke="none">
<path d="M1957 5109 c-143 -34 -263 -165 -287 -315 -6 -36 -10 -537 -10 -1286
l0 -1227 -28 10 c-18 6 -255 9 -628 7 l-599 -3 -56 -27 c-76 -38 -146 -109
-183 -188 l-31 -65 -3 -958 c-3 -1058 -6 -996 61 -1037 31 -20 69 -20 2367
-20 2298 0 2336 0 2367 20 68 41 64 -89 61 1677 l-3 1598 -31 65 c-37 79 -107
150 -183 188 l-56 27 -599 3 c-373 2 -610 -1 -628 -7 l-28 -10 0 587 c0 333
-4 613 -10 646 -20 126 -103 234 -220 290 l-65 31 -585 2 c-322 1 -602 -3
-623 -8z m1187 -270 c60 -47 56 129 56 -2329 l0 -2250 -640 0 -640 0 2 2266 3
2266 37 34 38 34 559 0 c551 0 559 0 585 -21z m1515 -1527 c19 -9 44 -30 55
-45 21 -28 21 -29 24 -1518 l2 -1489 -640 0 -640 0 0 1494 0 1493 22 28 c43
54 40 54 613 55 485 0 533 -2 564 -18z m-3075 -1276 c18 -7 42 -26 54 -41 l22
-28 0 -853 0 -854 -640 0 -640 0 2 849 c3 841 3 850 24 878 47 64 35 63 617
63 426 0 534 -3 561 -14z"/>
</g>
</svg>
