<?xml version="1.0" encoding="UTF-8"?>
<!DOCTYPE svg PUBLIC "-//W3C//DTD SVG 1.1//EN" "http://www.w3.org/Graphics/SVG/1.1/DTD/svg11.dtd">
<svg xmlns="http://www.w3.org/2000/svg" version="1.1" width="512px" height="512px" style="shape-rendering:geometricPrecision; text-rendering:geometricPrecision; image-rendering:optimizeQuality; fill-rule:evenodd; clip-rule:evenodd" xmlns:xlink="http://www.w3.org/1999/xlink">
<g><path style="opacity:0.969" fill="#000000" d="M 187.5,41.5 C 275.501,41.3333 363.501,41.5 451.5,42C 461.333,43.8333 467.167,49.6667 469,59.5C 469.667,190.167 469.667,320.833 469,451.5C 466.833,461 461,466.833 451.5,469C 362.123,469.99 272.79,469.656 183.5,468C 176.053,464.952 171.553,459.452 170,451.5C 169.333,427.5 169.333,403.5 170,379.5C 173.57,366.611 182.07,360.777 195.5,362C 203.452,363.553 208.952,368.053 212,375.5C 213.441,392.11 213.941,408.777 213.5,425.5C 284.167,425.5 354.833,425.5 425.5,425.5C 425.5,312.167 425.5,198.833 425.5,85.5C 354.833,85.5 284.167,85.5 213.5,85.5C 213.667,100.837 213.5,116.17 213,131.5C 207.068,148.213 195.901,153.046 179.5,146C 174.364,142.517 171.197,137.684 170,131.5C 169.333,107.5 169.333,83.5 170,59.5C 172.014,49.654 177.847,43.654 187.5,41.5 Z"/></g>
<g><path style="opacity:0.971" fill="#000000" d="M 272.5,169.5 C 279.069,168.859 285.069,170.359 290.5,174C 313.333,196.833 336.167,219.667 359,242.5C 363.667,251.167 363.667,259.833 359,268.5C 335.472,292.362 311.639,315.862 287.5,339C 269.173,344.838 258.173,338.338 254.5,319.5C 254.932,314.76 256.432,310.426 259,306.5C 268.5,297 278,287.5 287.5,278C 211.5,277.667 135.5,277.333 59.5,277C 48.2327,274.324 42.2327,267.157 41.5,255.5C 42.2327,243.843 48.2327,236.676 59.5,234C 135.5,233.667 211.5,233.333 287.5,233C 278,223.5 268.5,214 259,204.5C 251.02,187.933 255.52,176.267 272.5,169.5 Z"/></g>
</svg>
