<?xml version="1.0" encoding="UTF-8"?>
<!DOCTYPE svg PUBLIC "-//W3C//DTD SVG 1.1//EN" "http://www.w3.org/Graphics/SVG/1.1/DTD/svg11.dtd">
<svg xmlns="http://www.w3.org/2000/svg" version="1.1" width="512px" height="512px" style="shape-rendering:geometricPrecision; text-rendering:geometricPrecision; image-rendering:optimizeQuality; fill-rule:evenodd; clip-rule:evenodd" xmlns:xlink="http://www.w3.org/1999/xlink">
<g><path style="opacity:0.931" fill="#040404" d="M 351.5,-0.5 C 358.167,-0.5 364.833,-0.5 371.5,-0.5C 381.088,3.26343 386.921,10.2634 389,20.5C 389.667,177.167 389.667,333.833 389,490.5C 386.935,500.725 381.101,507.725 371.5,511.5C 364.5,511.5 357.5,511.5 350.5,511.5C 249.651,496.478 179.151,442.145 139,348.5C 106.962,256.74 119.962,172.074 178,94.5C 223.327,40.2484 281.16,8.58172 351.5,-0.5 Z"/></g>
<g><path style="opacity:1" fill="#ecf1f9" d="M 355.5,9.5 C 363.461,8.04613 370.294,10.0461 376,15.5C 376.667,16.8333 377.333,18.1667 378,19.5C 378.667,176.833 378.667,334.167 378,491.5C 374.784,498.943 369.117,502.277 361,501.5C 283.976,494.003 222.643,459.336 177,397.5C 133.438,332.252 121.771,261.585 142,185.5C 172.452,94.3814 234.285,37.2147 327.5,14C 336.927,12.1502 346.26,10.6502 355.5,9.5 Z"/></g>
</svg>
