<?xml version="1.0" standalone="no"?>
<!DOCTYPE svg PUBLIC "-//W3C//DTD SVG 20010904//EN"
 "http://www.w3.org/TR/2001/REC-SVG-20010904/DTD/svg10.dtd">
<svg version="1.0" xmlns="http://www.w3.org/2000/svg"
 width="512.000000pt" height="512.000000pt" viewBox="0 0 512.000000 512.000000"
 preserveAspectRatio="xMidYMid meet">

<g transform="translate(0.000000,512.000000) scale(0.100000,-0.100000)"
fill="#000000" stroke="none">
<path d="M674 5104 c-265 -44 -465 -187 -573 -409 -60 -122 -77 -187 -91 -332
-25 -269 45 -608 200 -970 97 -226 267 -536 411 -750 27 -40 49 -77 49 -82 0
-5 -38 -68 -84 -138 -405 -620 -617 -1232 -576 -1662 13 -139 38 -232 89 -336
195 -393 651 -518 1261 -346 314 88 761 306 1110 541 l90 61 90 -61 c347 -233
787 -448 1105 -539 714 -205 1219 4 1341 555 23 106 23 352 0 484 -53 300
-175 629 -353 955 -69 126 -110 193 -251 416 -23 36 -42 69 -42 72 0 3 38 64
84 134 297 455 491 904 562 1303 23 132 23 378 0 485 -100 455 -467 683 -1004
624 -387 -42 -880 -245 -1385 -570 -76 -49 -142 -89 -148 -89 -5 0 -43 23 -84
50 -309 209 -727 419 -1020 513 -304 98 -563 128 -781 91z m411 -445 c289 -54
659 -213 1017 -437 l87 -54 -92 -76 c-357 -294 -784 -720 -1071 -1070 -38 -46
-73 -79 -77 -75 -22 22 -177 291 -243 422 -129 256 -212 485 -251 691 -19 101
-21 277 -4 346 59 241 263 323 634 253z m3320 9 c162 -35 253 -144 274 -328
25 -229 -55 -537 -239 -917 -80 -165 -249 -465 -270 -478 -4 -2 -36 30 -71 73
-290 351 -653 718 -1011 1019 -81 69 -148 128 -148 132 0 13 266 167 428 248
257 128 454 200 663 242 155 31 261 33 374 9z m-1729 -855 c419 -334 884 -804
1183 -1196 l43 -57 -43 -56 c-248 -322 -630 -724 -963 -1013 -110 -95 -328
-271 -336 -271 -8 0 -230 180 -350 284 -309 269 -660 637 -919 964 l-73 92 42
56 c256 331 667 761 995 1041 120 103 296 243 305 243 4 0 57 -39 116 -87z
m-1556 -1824 c273 -323 625 -669 965 -948 50 -41 94 -77 98 -81 11 -10 -235
-157 -420 -251 -164 -83 -356 -162 -493 -202 -177 -53 -237 -62 -400 -62 -139
1 -161 3 -215 24 -246 97 -285 429 -108 921 73 202 235 526 371 739 l35 55 31
-36 c17 -19 78 -90 136 -159z m3142 43 c459 -770 553 -1399 232 -1548 -145
-68 -397 -56 -675 32 -237 74 -563 231 -811 390 l-77 49 62 50 c336 269 739
664 1042 1024 70 83 131 148 136 145 5 -3 46 -67 91 -142z"/>
<path d="M2406 3195 c-138 -35 -278 -127 -362 -238 -98 -130 -139 -265 -131
-432 13 -266 181 -488 437 -579 76 -27 97 -31 205 -31 98 0 134 4 195 23 200
62 361 220 431 422 19 55 23 86 23 200 1 122 -2 142 -26 208 -38 104 -83 176
-158 252 -75 74 -166 131 -260 162 -86 27 -269 34 -354 13z m498 -243 c110
-76 116 -253 11 -339 -162 -134 -401 22 -344 224 39 142 211 201 333 115z"/>
</g>
</svg>
