<?xml version="1.0" standalone="no"?>
<!DOCTYPE svg PUBLIC "-//W3C//DTD SVG 20010904//EN"
 "http://www.w3.org/TR/2001/REC-SVG-20010904/DTD/svg10.dtd">
<svg version="1.0" xmlns="http://www.w3.org/2000/svg"
 width="512.000000pt" height="512.000000pt" viewBox="0 0 512.000000 512.000000"
 preserveAspectRatio="xMidYMid meet">

<g transform="translate(0.000000,512.000000) scale(0.100000,-0.100000)"
fill="#000000" stroke="none">
<path d="M1088 5104 c-177 -42 -325 -182 -381 -359 l-22 -70 0 -2115 0 -2115
22 -70 c56 -179 205 -317 385 -360 90 -21 3283 -22 3311 -1 28 22 37 71 37
211 0 153 -7 181 -55 237 -40 47 -75 146 -75 213 0 67 35 166 75 213 20 23 41
56 46 74 12 45 12 4052 -1 4097 -18 65 110 60 -1665 60 -1345 -1 -1630 -3
-1677 -15z m3192 -1944 l0 -1810 -1398 0 c-1393 0 -1398 0 -1420 -20 -30 -28
-30 -82 0 -110 22 -20 27 -20 1420 -20 l1398 0 0 -75 0 -75 -1559 0 -1559 0
-53 -28 c-103 -54 -129 -124 -129 -347 0 -223 26 -293 129 -347 l53 -28 1559
0 1559 0 0 -75 0 -75 -1559 0 c-1532 0 -1560 0 -1622 20 -115 36 -197 114
-239 228 -20 52 -21 73 -18 297 3 240 3 240 30 292 36 68 78 114 136 151 53
34 138 62 191 62 45 1 69 19 81 61 6 21 10 724 10 1871 l0 1838 1495 0 1495 0
0 -1810z m-3150 -9 l0 -1809 -39 -7 c-54 -9 -157 -59 -208 -101 l-43 -36 2
1754 3 1753 34 63 c41 76 116 145 186 172 28 10 53 19 58 19 4 1 7 -813 7
-1808z m128 -2271 c21 -20 22 -28 22 -205 0 -177 -1 -185 -22 -205 -28 -26
-68 -26 -96 0 -21 20 -22 28 -22 205 0 177 1 185 22 205 12 11 34 20 48 20 14
0 36 -9 48 -20z m2946 3 c-21 -49 -43 -155 -43 -208 0 -53 22 -159 43 -207 8
-17 -62 -18 -1386 -18 l-1395 0 8 48 c4 26 8 106 8 177 0 72 -4 151 -8 178
l-8 47 1395 0 c1324 0 1394 -1 1386 -17z"/>
</g>
</svg>
