<?xml version="1.0" standalone="no"?>
<!DOCTYPE svg PUBLIC "-//W3C//DTD SVG 20010904//EN"
 "http://www.w3.org/TR/2001/REC-SVG-20010904/DTD/svg10.dtd">
<svg version="1.0" xmlns="http://www.w3.org/2000/svg"
 width="512.000000pt" height="512.000000pt" viewBox="0 0 512.000000 512.000000"
 preserveAspectRatio="xMidYMid meet">

<g transform="translate(0.000000,512.000000) scale(0.100000,-0.100000)"
fill="#000000" stroke="none">
<path d="M1 3038 c1 -1198 5 -2052 10 -2010 31 262 132 530 288 764 256 383
634 650 1139 804 8 2 -20 27 -62 54 -445 298 -610 893 -381 1377 145 308 416
533 739 614 104 27 336 37 444 19 354 -57 671 -292 827 -615 76 -157 108 -299
108 -480 0 -249 -69 -459 -214 -656 -63 -85 -196 -213 -278 -266 -40 -26 -59
-44 -50 -47 8 -3 64 -21 124 -41 233 -76 513 -238 698 -402 293 -260 501 -613
577 -975 27 -129 40 -285 40 -471 0 -170 -9 -211 -51 -241 -30 -20 -98 -21
-127 0 -44 30 -46 48 -53 324 -8 284 -17 346 -74 516 -137 401 -453 750 -862
949 -684 335 -1524 225 -2088 -273 -151 -134 -281 -304 -372 -487 -121 -242
-163 -446 -163 -797 0 -175 -4 -198 -44 -230 -47 -39 -143 -12 -166 46 -5 12
-9 -88 -9 -246 l-1 -268 2560 0 2560 0 0 488 c0 481 0 487 -19 456 -38 -62
-128 -70 -174 -15 -23 28 -24 36 -30 233 -7 259 -29 366 -113 547 -113 245
-348 477 -607 600 -166 78 -344 123 -556 139 -107 9 -116 11 -138 36 -42 50
-42 102 0 152 20 23 34 27 117 36 289 30 510 202 596 464 26 79 29 103 29 209
-1 108 -4 129 -31 206 -62 174 -179 307 -339 384 -102 49 -147 61 -258 71 -62
5 -85 12 -108 31 -55 46 -47 136 15 174 38 23 94 24 211 4 172 -30 319 -104
447 -224 155 -146 246 -313 279 -515 15 -94 7 -266 -16 -356 -23 -87 -85 -218
-139 -293 -43 -60 -156 -176 -205 -210 -14 -9 -23 -18 -20 -20 2 -2 38 -16 79
-32 519 -197 884 -632 964 -1150 12 -79 14 149 15 1808 l1 1897 -2560 0 -2560
0 1 -2082z"/>
<path d="M1830 4435 c-345 -71 -612 -332 -696 -681 -25 -103 -23 -285 5 -399
77 -317 326 -571 646 -656 113 -31 326 -31 437 -1 218 59 401 191 524 378 99
150 144 303 144 488 0 251 -88 458 -270 636 -127 124 -300 212 -470 239 -87
14 -240 12 -320 -4z"/>
</g>
</svg>
