<?xml version="1.0" standalone="no"?>
<!DOCTYPE svg PUBLIC "-//W3C//DTD SVG 20010904//EN"
 "http://www.w3.org/TR/2001/REC-SVG-20010904/DTD/svg10.dtd">
<svg version="1.0" xmlns="http://www.w3.org/2000/svg"
 width="512.000000pt" height="512.000000pt" viewBox="0 0 512.000000 512.000000"
 preserveAspectRatio="xMidYMid meet">

<g transform="translate(0.000000,512.000000) scale(0.100000,-0.100000)"
fill="#000000" stroke="none">
<path d="M1588 4790 c-162 -28 -338 -125 -449 -249 -39 -43 -152 -229 -414
-682 -556 -963 -562 -974 -589 -1049 -55 -152 -55 -349 1 -502 16 -45 205
-384 487 -872 507 -879 507 -879 660 -980 91 -60 186 -101 285 -122 102 -21
1880 -21 1985 1 157 32 287 104 401 219 84 86 103 117 902 1508 56 97 113 209
127 248 55 151 55 349 0 501 -14 39 -65 139 -113 223 -891 1547 -830 1444
-916 1532 -102 104 -201 162 -360 212 -44 14 -163 16 -1005 18 -525 1 -976 -2
-1002 -6z m1928 -324 c29 -7 76 -27 105 -42 116 -63 116 -63 595 -894 246
-426 456 -797 467 -825 27 -70 27 -220 0 -290 -26 -66 -907 -1592 -941 -1629
-43 -46 -140 -105 -210 -126 -62 -19 -95 -20 -972 -20 -877 0 -910 1 -972 20
-70 21 -167 80 -210 126 -33 37 -915 1562 -941 1629 -27 70 -27 220 0 290 11
28 221 399 467 825 479 832 479 831 596 894 102 56 73 54 1055 55 741 1 920
-2 961 -13z"/>
<path d="M2450 3500 c-398 -50 -716 -335 -812 -727 -30 -122 -30 -304 0 -426
87 -355 355 -622 709 -709 122 -29 304 -29 426 0 354 87 622 355 709 709 44
181 24 407 -52 585 -92 215 -296 417 -509 503 -136 56 -332 83 -471 65z m260
-332 c25 -5 83 -29 130 -51 159 -77 290 -242 331 -417 16 -71 16 -209 0 -280
-41 -175 -172 -340 -331 -417 -106 -51 -171 -67 -280 -67 -171 0 -318 61 -440
184 -123 122 -184 269 -184 440 0 109 16 174 67 280 126 258 420 395 707 328z"/>
</g>
</svg>
