<?xml version="1.0" encoding="UTF-8"?>
<!DOCTYPE svg PUBLIC "-//W3C//DTD SVG 1.1//EN" "http://www.w3.org/Graphics/SVG/1.1/DTD/svg11.dtd">
<svg xmlns="http://www.w3.org/2000/svg" version="1.1" width="512px" height="512px" style="shape-rendering:geometricPrecision; text-rendering:geometricPrecision; image-rendering:optimizeQuality; fill-rule:evenodd; clip-rule:evenodd" xmlns:xlink="http://www.w3.org/1999/xlink">
<g><path style="opacity:0.94" fill="#000000" d="M 241.5,15.5 C 281.208,12.5958 309.708,28.9292 327,64.5C 330.665,73.8229 332.665,83.4896 333,93.5C 333.5,104.828 333.667,116.162 333.5,127.5C 357.169,127.333 380.836,127.5 404.5,128C 417.773,132.678 423.94,142.178 423,156.5C 433.118,263.461 442.451,370.461 451,477.5C 447.699,488.803 440.199,494.97 428.5,496C 310.833,496.667 193.167,496.667 75.5,496C 63.4297,494.262 56.263,487.429 54,475.5C 63.0363,364.767 73.0363,254.1 84,143.5C 87.255,135.911 92.755,130.744 100.5,128C 124.498,127.5 148.498,127.333 172.5,127.5C 172.333,113.163 172.5,98.8295 173,84.5C 180.68,46.3204 203.513,23.3204 241.5,15.5 Z M 242.5,32.5 C 278.203,30.4053 302.036,46.072 314,79.5C 316.223,95.4119 317.057,111.412 316.5,127.5C 274.167,127.5 231.833,127.5 189.5,127.5C 189.333,113.496 189.5,99.496 190,85.5C 196.338,56.6621 213.838,38.9955 242.5,32.5 Z M 104.5,144.5 C 127.167,144.5 149.833,144.5 172.5,144.5C 172.666,149.844 172.499,155.177 172,160.5C 156.469,168.924 152.469,181.258 160,197.5C 171.418,209.824 183.918,211.157 197.5,201.5C 206.173,191.639 207.34,180.973 201,169.5C 197.914,165.743 194.248,162.743 190,160.5C 189.501,155.177 189.334,149.844 189.5,144.5C 231.833,144.5 274.167,144.5 316.5,144.5C 316.666,149.844 316.499,155.177 316,160.5C 300.469,168.924 296.469,181.258 304,197.5C 315.418,209.824 327.918,211.157 341.5,201.5C 350.173,191.639 351.34,180.973 345,169.5C 341.914,165.743 338.248,162.743 334,160.5C 333.501,155.177 333.334,149.844 333.5,144.5C 356.169,144.333 378.836,144.5 401.5,145C 403.049,146.214 404.215,147.714 405,149.5C 415.391,257.797 425.057,366.131 434,474.5C 432.622,477.108 430.455,478.608 427.5,479C 310.833,479.667 194.167,479.667 77.5,479C 74.4265,478.261 72.2598,476.428 71,473.5C 80.0377,364.753 90.0377,256.086 101,147.5C 102.145,146.364 103.312,145.364 104.5,144.5 Z M 177.5,176.5 C 185.775,175.706 188.942,179.373 187,187.5C 183.341,191.115 179.341,191.448 175,188.5C 172.511,183.757 173.345,179.757 177.5,176.5 Z M 321.5,176.5 C 329.775,175.706 332.942,179.373 331,187.5C 327.341,191.115 323.341,191.448 319,188.5C 316.511,183.757 317.345,179.757 321.5,176.5 Z"/></g>
</svg>
