<?xml version="1.0" standalone="no"?>
<!DOCTYPE svg PUBLIC "-//W3C//DTD SVG 20010904//EN"
 "http://www.w3.org/TR/2001/REC-SVG-20010904/DTD/svg10.dtd">
<svg version="1.0" xmlns="http://www.w3.org/2000/svg"
 width="512.000000pt" height="512.000000pt" viewBox="0 0 512.000000 512.000000"
 preserveAspectRatio="xMidYMid meet">

<g transform="translate(0.000000,512.000000) scale(0.100000,-0.100000)"
fill="#000000" stroke="none">
<path d="M1 4113 c1 -555 4 -994 8 -978 26 104 110 208 204 250 38 17 118 33
297 59 927 135 1073 157 1099 171 16 8 38 27 49 42 11 16 144 282 297 593 153
311 292 585 310 610 66 95 175 150 295 150 120 0 229 -55 295 -150 18 -25 157
-299 310 -610 153 -311 286 -577 297 -593 11 -15 32 -34 48 -42 17 -9 280 -51
617 -100 746 -108 720 -104 772 -126 95 -42 169 -124 201 -226 19 -57 19 -47
19 950 l1 1007 -2560 0 -2560 0 1 -1007z"/>
<path d="M2495 4791 c-22 -10 -47 -27 -56 -37 -9 -10 -144 -278 -300 -594
-155 -316 -296 -594 -312 -618 -32 -48 -90 -95 -153 -123 -27 -12 -256 -50
-700 -114 -465 -68 -668 -102 -689 -114 -16 -9 -40 -33 -53 -52 -20 -29 -23
-44 -20 -97 l4 -63 205 -203 c112 -111 333 -328 491 -482 249 -242 291 -288
314 -339 49 -107 48 -120 -75 -838 -93 -540 -110 -654 -102 -684 21 -76 111
-133 184 -117 18 3 288 141 601 306 313 165 588 307 610 315 60 22 180 20 241
-4 28 -11 302 -153 611 -315 308 -163 574 -299 591 -302 73 -16 163 41 184
117 8 30 -9 144 -101 679 -60 354 -110 666 -110 694 0 65 22 140 57 192 16 22
238 246 496 497 257 251 474 469 482 485 37 71 8 172 -60 211 -21 13 -221 46
-689 114 -443 64 -673 102 -700 114 -62 28 -121 75 -153 123 -17 24 -157 302
-313 618 -155 316 -290 584 -299 594 -21 24 -89 56 -121 56 -14 0 -43 -9 -65
-19z"/>
<path d="M1 1498 l-1 -1498 2560 0 2560 0 -1 1498 c0 1224 -3 1490 -13 1457
-29 -92 -58 -125 -458 -515 -222 -217 -440 -431 -485 -475 -62 -61 -84 -90
-92 -122 -10 -36 1 -114 100 -685 120 -699 124 -733 80 -831 -29 -66 -109
-148 -178 -182 -74 -36 -188 -46 -260 -22 -26 9 -307 152 -623 319 -553 291
-577 303 -630 303 -53 0 -79 -13 -630 -303 -316 -167 -596 -310 -623 -319 -71
-23 -186 -14 -258 20 -68 33 -151 117 -180 184 -44 98 -40 132 80 831 99 572
110 649 100 685 -13 48 15 20 -567 587 -410 400 -439 432 -468 525 -10 33 -13
-233 -13 -1457z"/>
</g>
</svg>
