<?xml version="1.0" standalone="no"?>
<!DOCTYPE svg PUBLIC "-//W3C//DTD SVG 20010904//EN"
 "http://www.w3.org/TR/2001/REC-SVG-20010904/DTD/svg10.dtd">
<svg version="1.0" xmlns="http://www.w3.org/2000/svg"
 width="512.000000pt" height="512.000000pt" viewBox="0 0 512.000000 512.000000"
 preserveAspectRatio="xMidYMid meet">

<g transform="translate(0.000000,512.000000) scale(0.100000,-0.100000)"
fill="#000000" stroke="none">
<path d="M1065 4675 c-194 -53 -341 -185 -411 -370 -34 -91 -92 -540 -169
-1300 -45 -442 -57 -803 -53 -1530 l3 -540 28 -69 c68 -171 206 -296 386 -350
168 -50 1079 -92 1806 -83 452 5 1345 45 1502 67 229 32 413 190 478 412 28
97 46 418 52 923 8 655 -10 1004 -83 1615 -43 362 -104 772 -125 835 -62 191
-227 344 -420 390 -56 13 -249 15 -1504 14 -1179 0 -1449 -3 -1490 -14z m680
-850 c36 -7 78 -43 101 -87 9 -17 20 -74 25 -127 16 -186 78 -320 204 -446
135 -136 300 -205 485 -205 120 0 190 17 310 77 73 37 111 64 170 123 132 130
202 277 219 461 11 113 30 154 87 190 47 28 127 30 181 2 52 -26 83 -88 83
-164 0 -262 -119 -538 -316 -734 -269 -268 -637 -369 -999 -275 -44 12 -129
45 -190 75 -276 135 -470 371 -552 673 -22 79 -27 120 -27 219 -1 108 1 124
20 149 38 52 109 88 154 79 8 -2 29 -6 45 -10z"/>
</g>
</svg>
