<?xml version="1.0" standalone="no"?>
<!DOCTYPE svg PUBLIC "-//W3C//DTD SVG 20010904//EN"
 "http://www.w3.org/TR/2001/REC-SVG-20010904/DTD/svg10.dtd">
<svg version="1.0" xmlns="http://www.w3.org/2000/svg"
 width="512.000000pt" height="512.000000pt" viewBox="0 0 512.000000 512.000000"
 preserveAspectRatio="xMidYMid meet">

<g transform="translate(0.000000,512.000000) scale(0.100000,-0.100000)"
fill="#000000" stroke="none">
<path d="M0 3583 l0 -1538 640 640 640 640 177 -178 178 -177 -328 -328 c-180
-180 -327 -331 -327 -335 0 -4 669 -6 1488 -5 l1487 3 80 23 c165 46 304 133
396 246 135 167 198 388 170 600 -42 313 -245 549 -556 642 -56 17 -131 18
-1027 21 l-968 4 0 254 0 255 953 0 c1016 0 1027 -1 1207 -50 93 -26 258 -104
353 -167 156 -103 331 -302 417 -473 64 -126 111 -280 129 -416 5 -44 9 291
10 904 l1 972 -2560 0 -2560 0 0 -1537z"/>
<path d="M5110 2923 c0 -61 -45 -241 -84 -337 -68 -168 -155 -297 -290 -431
-143 -140 -299 -236 -486 -296 -204 -67 -94 -62 -1760 -66 l-1514 -4 332 -332
332 -332 -180 -180 -180 -180 -640 640 -640 640 0 -1023 0 -1022 2560 0 2560
0 0 1480 c0 814 -2 1480 -5 1480 -3 0 -5 -17 -5 -37z"/>
</g>
</svg>
